<?xml version="1.0" standalone="no"?>
<!DOCTYPE svg PUBLIC "-//W3C//DTD SVG 20010904//EN"
 "http://www.w3.org/TR/2001/REC-SVG-20010904/DTD/svg10.dtd">
<svg version="1.0" xmlns="http://www.w3.org/2000/svg"
 width="558.000000pt" height="507.000000pt" viewBox="0 0 558.000000 507.000000"
 preserveAspectRatio="xMidYMid meet">

<g transform="translate(0.000000,507.000000) scale(0.100000,-0.100000)"
fill="#000000" stroke="none">
<path d="M3632 3998 c-7 -7 -12 -20 -12 -30 0 -32 82 -36 88 -4 8 37 -48 62
-76 34z"/>
<path d="M1102 3804 c-71 -50 -30 -164 58 -164 36 0 80 53 80 95 0 70 -80 110
-138 69z"/>
<path d="M5294 3184 c-24 -24 -98 -143 -92 -149 7 -7 119 147 115 158 -2 6
-12 2 -23 -9z"/>
<path d="M4282 3120 c-7 -12 -23 -20 -40 -20 -19 0 -23 -3 -13 -9 25 -16 78
13 69 39 -2 6 -9 1 -16 -10z"/>
<path d="M4930 3001 c120 -127 140 -159 140 -219 0 -24 -20 -177 -45 -340 -25
-163 -93 -616 -150 -1007 -60 -404 -113 -733 -124 -762 -22 -62 -24 -60 84
-65 l70 -3 12 38 c19 56 313 2051 313 2116 -1 31 -6 68 -13 82 -7 15 -61 79
-122 142 l-110 116 -80 7 -80 7 105 -112z"/>
<path d="M1722 3065 c-64 -18 -141 -61 -138 -78 1 -7 5 -18 10 -26 6 -9 -8
-28 -47 -65 -30 -28 -61 -67 -68 -86 -16 -46 -46 -78 -154 -165 -49 -40 -115
-93 -145 -119 -30 -27 -65 -52 -77 -57 -15 -5 -23 -17 -23 -33 0 -32 -45 -69
-104 -86 -25 -7 -46 -15 -46 -19 0 -3 -14 -12 -31 -20 -21 -9 -37 -27 -49 -57
-17 -38 -18 -54 -10 -121 19 -156 37 -182 146 -213 63 -18 76 -27 143 -96 123
-125 267 -183 511 -203 427 -37 390 -36 390 -17 0 8 6 16 13 19 9 3 11 -9 9
-47 -3 -43 0 -55 18 -71 46 -42 276 -26 336 24 45 37 60 102 38 166 l-15 45
30 26 c39 33 55 90 41 144 -5 22 -15 58 -20 80 -10 35 -17 42 -73 69 -34 16
-98 37 -142 46 -97 21 -125 34 -74 35 63 0 222 -31 309 -61 110 -38 177 -39
219 -3 80 67 33 179 -98 236 -67 29 -214 65 -337 82 -59 8 -112 20 -117 25 -8
8 -5 11 9 11 41 0 264 -31 397 -56 190 -35 252 -23 283 53 18 41 7 88 -29 121
-79 74 -386 130 -827 151 -193 10 -270 21 -270 42 0 5 18 18 40 29 34 18 58
20 172 19 73 0 145 4 160 10 36 14 63 56 63 100 0 57 -37 98 -124 140 -69 33
-85 36 -171 38 -60 2 -115 -3 -148 -12z m338 -110 c17 -9 30 -23 30 -32 0 -12
-7 -14 -36 -10 -35 6 -74 31 -74 49 0 13 49 9 80 -7z m-380 -306 c54 -18 97
-22 255 -26 105 -2 210 -9 235 -16 25 -6 49 -10 53 -9 5 1 6 -2 3 -7 -13 -20
-273 -51 -371 -44 -136 10 -254 61 -255 111 0 16 4 15 80 -9z m1084 -135 c21
-8 21 -43 0 -51 -20 -8 -49 21 -41 41 7 17 16 19 41 10z m-628 -222 c-4 -3
-11 -1 -18 6 -8 8 -8 15 3 28 13 16 14 16 17 -5 2 -13 1 -25 -2 -29z m539
-112 c0 -8 -10 -16 -22 -18 -18 -3 -23 2 -23 18 0 16 5 21 23 18 12 -2 22 -10
22 -18z m-555 -129 c0 -17 -12 -41 -21 -41 -10 0 -12 33 -2 43 9 10 23 9 23
-2z m87 -123 c-3 -8 -6 -5 -6 6 -1 11 2 17 5 13 3 -3 4 -12 1 -19z m191 -57
c-5 -24 -38 -27 -38 -3 0 10 3 21 6 25 11 11 35 -5 32 -22z m-178 -22 c27 -6
50 -15 50 -21 0 -5 -8 -7 -17 -5 -10 3 -35 8 -55 12 -21 3 -40 10 -43 15 -8
13 2 12 65 -1z m80 -21 c0 -21 -3 -29 -10 -22 -5 5 -7 19 -4 32 9 31 14 27 14
-10z m-194 -85 c-5 -12 -10 -13 -18 -5 -8 8 -8 15 3 28 15 18 25 4 15 -23z
m34 -122 c0 -11 -5 -23 -11 -27 -15 -9 -33 12 -26 30 9 23 37 20 37 -3z"/>
<path d="M5330 3014 c-25 -13 -34 -22 -20 -18 47 13 70 24 70 34 0 13 3 14
-50 -16z"/>
<path d="M5345 2861 c88 -32 95 -33 95 -19 0 7 -12 13 -29 14 -16 1 -37 5 -47
9 -11 4 -30 9 -44 11 -14 2 -2 -5 25 -15z"/>
<path d="M3671 2859 c-101 -17 -155 -63 -155 -134 0 -78 51 -115 189 -139 49
-9 112 -27 140 -41 58 -28 135 -91 135 -109 0 -19 -92 -26 -354 -26 -210 1
-327 6 -562 26 -110 9 -166 0 -204 -36 -25 -23 -30 -36 -30 -75 0 -40 5 -52
33 -80 21 -21 54 -39 90 -50 l57 -16 -29 -25 c-56 -46 -49 -127 14 -183 31
-27 171 -81 210 -81 12 0 12 -5 -1 -35 -7 -19 -14 -56 -14 -83 0 -64 30 -110
93 -141 l47 -23 -25 -24 c-32 -29 -45 -64 -45 -118 0 -81 59 -135 169 -156 71
-13 660 -13 792 1 133 13 184 38 300 146 79 74 93 83 137 89 66 8 74 26 112
249 26 158 28 335 2 358 -23 21 -123 47 -179 47 -88 0 -143 44 -260 208 -88
124 -93 134 -52 97 37 -34 36 -32 -49 81 -78 105 -159 176 -247 220 -122 60
-195 72 -314 53z m526 -599 c-4 -28 -17 -37 -27 -20 -14 21 -12 28 8 33 9 3
18 5 19 6 2 0 2 -8 0 -19z m78 10 c3 -5 1 -10 -4 -10 -6 0 -11 5 -11 10 0 6 2
10 4 10 3 0 8 -4 11 -10z m49 -39 c3 -5 -1 -14 -9 -21 -13 -10 -15 -9 -15 9 0
21 14 28 24 12z m-799 -91 c7 -12 -115 -12 -190 0 -41 6 -28 8 67 9 69 0 119
-3 123 -9z m1245 -103 c0 -8 -3 -17 -7 -20 -9 -9 -34 13 -27 24 8 14 34 11 34
-4z m-1231 -183 c2 -2 -16 -4 -42 -4 -25 0 -49 5 -52 11 -5 7 8 8 41 3 27 -3
51 -8 53 -10z"/>
<path d="M957 2459 c8 -8 19 -8 40 -1 28 10 28 10 -11 11 -29 1 -37 -2 -29
-10z"/>
<path d="M426 2452 c-10 -16 15 -176 30 -191 22 -24 26 5 12 104 -12 81 -27
111 -42 87z"/>
<path d="M555 1058 c4 -13 15 -34 24 -48 16 -22 26 -25 96 -28 l78 -3 -26 31
c-14 16 -28 39 -32 50 -6 18 -15 20 -76 20 -68 0 -70 -1 -64 -22z"/>
<path d="M1971 903 c-55 -47 -24 -133 48 -133 56 0 90 46 70 97 -20 52 -77 69
-118 36z"/>
</g>
</svg>
