<?xml version="1.0" standalone="no"?>
<!DOCTYPE svg PUBLIC "-//W3C//DTD SVG 20010904//EN"
 "http://www.w3.org/TR/2001/REC-SVG-20010904/DTD/svg10.dtd">
<svg version="1.0" xmlns="http://www.w3.org/2000/svg"
 width="612.000000pt" height="408.000000pt" viewBox="0 0 612.000000 408.000000"
 preserveAspectRatio="xMidYMid meet">

<g transform="translate(0.000000,408.000000) scale(0.100000,-0.100000)"
fill="#000000" stroke="none">
<path d="M2037 3851 c-22 -25 -35 -31 -70 -31 -31 0 -38 -3 -27 -10 8 -5 27
-10 41 -10 44 0 51 -21 60 -163 4 -80 14 -150 24 -177 14 -38 15 -55 6 -111
-6 -36 -9 -75 -6 -87 2 -13 0 -20 -4 -17 -11 6 -21 -18 -21 -49 0 -12 -6 -30
-13 -41 -8 -13 -13 -48 -13 -95 1 -55 -3 -78 -14 -87 -12 -10 -12 -14 -2 -21
9 -6 13 -47 14 -151 1 -108 5 -146 15 -157 10 -10 11 -14 2 -14 -8 0 -9 -3 0
-14 6 -7 9 -21 5 -30 -3 -9 -2 -16 4 -16 5 0 10 -37 11 -86 1 -67 -1 -84 -11
-78 -10 6 -10 4 0 -8 10 -13 12 -52 8 -170 -3 -84 -6 -169 -8 -188 -2 -19 1
-38 7 -42 5 -4 -5 -8 -22 -8 -31 0 -32 -1 -21 -25 8 -18 19 -25 40 -25 l28 0
0 -85 c0 -58 -4 -85 -12 -85 -6 0 -4 -8 6 -19 10 -11 23 -55 32 -107 14 -89
14 -119 10 -1339 l-1 -230 50 -8 c29 -4 140 -1 265 8 283 19 852 34 1615 40
341 4 637 10 658 15 21 4 48 16 59 27 20 17 20 25 14 163 -4 80 -9 156 -10
170 -2 14 -5 81 -6 150 -1 69 -4 116 -7 105 -19 -83 -59 -192 -84 -229 -39
-59 -114 -125 -175 -156 -37 -18 -65 -24 -115 -24 -91 0 -163 36 -250 125 -57
58 -70 80 -106 170 -23 57 -46 131 -52 163 -15 82 -13 218 3 296 17 78 85 227
126 274 16 18 26 36 23 40 -4 4 0 4 8 1 9 -3 41 10 74 30 120 72 272 39 392
-84 45 -45 109 -148 100 -158 -3 -3 -17 17 -30 44 -32 63 -100 139 -146 163
-92 49 -108 53 -176 54 -62 0 -79 -4 -141 -36 -86 -44 -114 -76 -164 -183 -54
-119 -65 -172 -64 -315 1 -129 6 -150 71 -324 23 -61 139 -182 207 -216 41
-20 65 -25 131 -25 74 0 84 3 133 34 55 35 143 126 168 173 8 15 26 73 40 130
23 91 26 116 21 213 -3 61 -13 135 -21 165 -17 60 -24 291 -27 907 l-2 334
-27 -48 c-42 -72 -91 -124 -154 -162 -50 -30 -64 -34 -127 -33 -91 0 -157 32
-252 121 -58 54 -78 82 -113 156 -58 123 -72 171 -84 278 -13 119 4 229 53
332 20 40 32 76 29 80 -4 4 0 5 8 3 9 -2 15 4 15 16 0 11 6 21 13 24 6 2 10 7
7 12 -6 10 77 46 139 60 26 6 71 8 99 5 52 -5 52 -5 12 6 -99 26 -232 -18
-298 -99 -81 -100 -126 -237 -128 -387 0 -60 -3 -73 -9 -52 -5 16 -9 190 -10
388 0 197 -3 365 -6 373 -6 16 -10 16 201 -34 44 -10 98 -22 120 -25 44 -7
177 -36 300 -65 44 -10 106 -21 138 -23 l58 -4 -7 26 c-9 33 -9 48 -1 91 10
52 0 61 -62 53 -47 -5 -55 -10 -65 -35 -13 -36 -20 -36 -186 6 -74 19 -207 51
-295 71 -88 20 -189 45 -225 55 -36 10 -105 23 -155 29 -257 32 -266 36 -285
127 -10 47 -14 54 -36 54 -13 0 -33 -9 -44 -20 -11 -11 -22 -20 -25 -19 -3 1
-19 -4 -34 -11 -24 -9 -54 -6 -192 25 -90 20 -204 45 -254 55 -49 11 -164 36
-255 56 -91 21 -174 38 -186 39 -11 1 -25 4 -31 8 -6 4 -51 11 -100 17 -48 5
-106 12 -128 16 -36 5 -43 3 -68 -25z m446 -136 c31 -8 105 -26 164 -40 60
-13 155 -36 213 -50 241 -58 370 -84 445 -88 44 -3 92 -10 108 -16 l27 -11 0
-247 c0 -137 1 -322 2 -413 1 -158 -1 -169 -31 -269 -37 -121 -83 -196 -154
-253 -70 -55 -96 -67 -174 -78 -164 -23 -286 24 -416 159 -97 102 -135 170
-173 306 -39 144 -39 283 0 415 33 111 44 134 85 177 17 18 31 37 31 43 0 6 6
8 13 4 6 -4 9 -4 5 1 -9 10 23 35 82 65 35 18 68 25 145 29 97 6 99 7 45 14
-104 14 -206 -20 -308 -105 -100 -81 -172 -268 -172 -441 0 -74 -2 -88 -13
-78 -10 7 -13 30 -11 68 1 32 3 230 3 441 1 305 4 382 14 382 7 0 38 -7 70
-15z m-410 -522 c4 -25 2 -30 -10 -26 -8 3 -12 12 -9 20 3 8 6 22 6 30 0 25 8
11 13 -24z m1467 -218 c0 -8 -4 -15 -8 -15 -5 0 -9 7 -9 15 0 8 4 15 9 15 4 0
8 -7 8 -15z m0 -62 c0 -7 -4 -13 -10 -13 -5 0 -10 12 -10 28 0 21 2 24 10 12
5 -8 10 -21 10 -27z m-50 -118 c0 -37 -4 -65 -10 -65 -6 0 -10 28 -10 65 0 37
4 65 10 65 6 0 10 -28 10 -65z m0 -352 c1 -142 2 -298 4 -348 9 -217 9 -249
-2 -253 -9 -3 -12 79 -13 315 -1 175 -3 369 -5 431 -1 63 2 112 7 112 5 0 9
-109 9 -257z m-1375 129 c-3 -3 -11 0 -18 7 -9 10 -8 11 6 5 10 -3 15 -9 12
-12z m146 -244 c-1 -67 -4 -124 -7 -127 -2 -2 -4 56 -4 129 0 73 3 131 6 127
4 -3 6 -61 5 -129z m1466 -245 c-2 -27 -3 -5 -3 47 0 52 1 74 3 48 2 -27 2
-69 0 -95z m-1480 -76 c-2 -23 -3 -1 -3 48 0 50 1 68 3 42 2 -26 2 -67 0 -90z
m430 -67 c-2 -20 0 -44 5 -53 6 -11 5 -17 -1 -17 -6 0 -13 11 -17 25 -8 33
-32 32 -37 -2 -2 -16 -5 -1 -6 33 l-1 61 31 -5 c30 -4 31 -6 26 -42z m75 21
c-6 -3 -12 -27 -15 -51 l-4 -45 -1 48 c-2 35 -6 47 -18 47 -8 0 -13 4 -10 9 3
4 17 6 32 3 14 -2 21 -8 16 -11z m55 -11 c7 -25 12 -25 30 -2 12 15 12 13 2
-10 -10 -22 -9 -34 0 -54 6 -15 9 -29 6 -32 -3 -4 -8 4 -12 16 -6 25 -21 29
-29 7 -4 -8 -10 -15 -15 -15 -5 0 -2 11 7 25 14 22 14 27 1 55 -9 17 -11 30
-5 30 5 0 12 -9 15 -20z m147 -9 c4 -5 -3 -7 -15 -4 -12 4 -25 0 -30 -8 -7
-11 -9 -10 -9 4 0 18 44 25 54 8z m76 -53 c0 -48 -1 -49 -27 -46 -25 3 -28 8
-31 42 -5 53 2 64 32 59 24 -5 26 -10 26 -55z m71 42 c5 0 9 -23 9 -51 0 -49
-1 -50 -27 -47 -26 3 -28 7 -29 48 -2 53 3 63 23 56 8 -3 19 -6 24 -6z m626
-22 c-3 -7 -5 -2 -5 12 0 14 2 19 5 13 2 -7 2 -19 0 -25z m-551 -33 l2 -50 -7
45 c-3 25 -10 45 -16 45 -16 0 -18 -67 -3 -76 10 -7 9 -9 -4 -9 -14 0 -18 9
-18 43 0 48 6 59 30 55 11 -2 15 -17 16 -53z m-241 5 c-16 -17 -16 -20 -2 -20
9 0 19 -5 22 -10 4 -7 -3 -8 -22 -4 -40 10 -41 13 -14 35 30 25 39 24 16 -1z
m1144 -95 c7 -4 11 5 12 22 1 18 3 22 6 10 3 -10 2 -25 -1 -34 -5 -12 -9 -13
-20 -4 -12 10 -15 7 -19 -16 -2 -16 -4 -7 -5 22 -1 37 1 45 8 29 5 -12 13 -25
19 -29z m68 -2 c-3 -10 -5 -4 -5 12 0 17 2 24 5 18 2 -7 2 -21 0 -30z m-591
-63 c1 -56 -2 -80 -10 -80 -26 0 -36 26 -36 92 0 64 1 68 23 68 21 0 22 -4 23
-80z m791 48 c-3 -7 -5 -2 -5 12 0 14 2 19 5 13 2 -7 2 -19 0 -25z m-200 -30
c-3 -8 -6 -5 -6 6 -1 11 2 17 5 13 3 -3 4 -12 1 -19z m-1077 -180 c64 -24 108
-54 186 -128 78 -74 108 -125 153 -264 l40 -121 0 -304 c0 -167 -2 -301 -6
-298 -3 4 -5 28 -5 56 1 32 -3 53 -13 61 -8 7 -15 17 -15 23 0 6 6 3 13 -7 12
-17 14 -15 15 20 0 30 -2 34 -8 19 -7 -16 -9 -17 -9 -3 -1 9 4 20 9 23 6 3 10
36 9 73 l-1 67 -32 -97 c-18 -53 -40 -108 -49 -121 -32 -49 -131 -149 -181
-182 -70 -46 -126 -58 -248 -53 -127 5 -168 22 -260 107 -97 89 -133 144 -173
262 -63 186 -65 338 -4 524 37 116 64 159 146 235 68 63 113 100 113 95 0 -2
17 3 38 12 84 37 183 37 282 1z m710 -293 c0 -5 -5 -3 -10 5 -5 8 -10 20 -10
25 0 6 5 3 10 -5 5 -8 10 -19 10 -25z m39 -90 c0 -5 -6 1 -14 15 -8 14 -14 30
-14 35 0 6 6 -1 14 -15 8 -14 14 -29 14 -35z m-1430 -34 c-1 -9 1 -23 4 -31 3
-8 8 -87 12 -175 7 -194 7 -195 19 -188 5 4 6 -5 2 -21 -4 -16 -2 -26 4 -26 6
0 8 -5 5 -10 -3 -6 3 -24 15 -40 12 -17 16 -30 10 -30 -6 0 -8 -5 -5 -10 4 -6
11 -8 16 -5 5 3 6 0 3 -8 -2 -7 10 -36 29 -64 24 -36 29 -49 18 -46 -24 6 -52
-29 -53 -66 -1 -41 19 -64 50 -56 17 4 22 2 16 -7 -5 -10 -4 -11 6 -1 15 14
22 36 22 72 0 20 4 16 26 -20 14 -24 30 -47 36 -51 11 -8 1 -12 -19 -8 -5 1
-7 -2 -2 -6 12 -12 47 -12 40 0 -3 6 6 0 20 -13 15 -14 27 -33 27 -43 0 -10 7
-18 16 -18 14 0 14 3 4 15 -18 22 -4 18 25 -6 20 -18 22 -25 14 -42 -12 -22 1
-36 36 -38 11 0 -7 -7 -40 -14 -33 -7 -61 -9 -63 -4 -2 4 -14 4 -27 -1 -12 -5
-37 -6 -54 -4 -18 3 -38 1 -44 -4 -7 -6 -37 -10 -67 -10 -87 -1 -92 -1 -85
-12 3 -5 -3 -10 -14 -10 -19 0 -21 6 -22 83 -2 277 1 683 5 749 5 70 -5 139
-30 202 -7 18 -6 18 20 1 15 -10 26 -25 25 -34z m1481 -71 c0 -10 7 -23 15
-30 12 -10 15 -36 13 -129 l-1 -116 -7 110 c-5 85 -11 118 -27 145 -12 19 -24
46 -28 60 l-6 25 20 -24 c12 -13 21 -31 21 -41z m429 1 c-13 -11 -26 -17 -28
-15 -5 5 30 33 43 34 4 0 -2 -9 -15 -19z m81 -21 c0 -5 -7 -10 -16 -10 -8 0
-12 -5 -9 -10 4 -6 11 -7 17 -4 7 5 8 2 2 -7 -5 -8 -10 -33 -11 -56 -3 -49 2
-51 64 -29 51 18 67 8 65 -41 -3 -79 -13 -112 -44 -138 -16 -14 -33 -25 -38
-25 -5 0 -17 -3 -27 -7 -13 -4 -12 -1 6 15 22 20 22 22 5 23 -10 1 -22 1 -26
0 -12 -2 -10 17 2 24 6 4 7 13 1 23 -4 9 -7 36 -6 60 1 23 -1 42 -4 42 -3 0
-27 -7 -53 -14 -55 -17 -61 -10 -53 57 3 24 2 36 -4 32 -6 -3 -6 6 1 25 5 17
13 29 15 26 3 -3 15 1 27 9 23 17 86 20 86 5z m-143 -162 c-3 -8 -6 -5 -6 6
-1 11 2 17 5 13 3 -3 4 -12 1 -19z m-340 -185 c-2 -16 -4 -3 -4 27 0 30 2 43
4 28 2 -16 2 -40 0 -55z m-467 -193 c0 -5 -4 -10 -10 -10 -5 0 -10 5 -10 10 0
6 5 10 10 10 6 0 10 -4 10 -10z m-65 -18 c-3 -3 -11 0 -18 7 -9 10 -8 11 6 5
10 -3 15 -9 12 -12z m55 -23 c0 -6 -4 -7 -10 -4 -5 3 -10 1 -10 -5 0 -6 -4 -8
-10 -5 -5 3 -10 11 -10 16 0 6 5 7 10 4 6 -3 10 -1 10 5 0 6 5 8 10 5 6 -3 10
-11 10 -16z m-62 -11 c15 -15 15 -41 1 -55 -12 -12 -39 -7 -39 8 0 4 7 6 15 3
19 -8 32 23 16 39 -10 9 -16 8 -27 -7 -15 -21 -18 -18 -8 8 7 19 25 21 42 4z
m-820 -26 c6 -39 -5 -55 -28 -42 -19 10 -27 49 -13 64 14 13 38 0 41 -22z
m1462 3 c0 -8 -2 -15 -4 -15 -2 0 -6 7 -10 15 -3 8 -1 15 4 15 6 0 10 -7 10
-15z m-540 -32 c0 -19 -3 -24 -10 -17 -6 6 -8 18 -4 27 9 24 14 21 14 -10z
m1231 0 c-12 -20 -14 -14 -5 12 4 9 9 14 11 11 3 -2 0 -13 -6 -23z m-1307 -8
c-4 -8 -10 -15 -15 -15 -4 0 -6 -8 -3 -17 5 -14 4 -15 -4 -4 -6 8 -16 10 -23
6 -8 -4 0 4 16 19 36 30 36 30 29 11z m647 -8 c-10 -9 -11 -8 -5 6 3 10 9 15
12 12 3 -3 0 -11 -7 -18z m-721 -13 c0 -8 -4 -14 -8 -14 -4 0 -8 9 -8 19 0 11
4 17 8 15 4 -3 8 -12 8 -20z m30 -29 c0 -7 -30 -13 -34 -7 -3 4 4 9 15 9 10 1
19 0 19 -2z m117 -77 c-2 -13 -4 -3 -4 22 0 25 2 35 4 23 2 -13 2 -33 0 -45z"/>
<path d="M2501 3444 c-22 -49 27 -105 64 -74 21 17 19 64 -3 83 -26 24 -47 21
-61 -9z m59 -9 c19 -23 8 -50 -20 -50 -21 0 -26 5 -28 33 -3 26 0 32 16 32 11
0 25 -7 32 -15z"/>
<path d="M2522 3414 c4 -21 22 -23 26 -1 2 10 -3 17 -13 17 -10 0 -15 -6 -13
-16z"/>
<path d="M2795 3426 c-91 -29 -199 -110 -241 -182 -39 -67 -74 -213 -74 -310
0 -114 32 -262 78 -353 52 -107 170 -229 266 -276 199 -99 391 -48 513 135 31
45 47 85 64 153 66 274 -21 559 -220 725 -123 103 -271 144 -386 108z m237
-402 c45 -29 94 -110 103 -170 10 -70 -17 -148 -63 -179 -43 -30 -117 -34
-148 -9 -19 15 -19 16 1 9 39 -14 65 -17 65 -7 0 5 -12 13 -27 17 -16 3 -43
18 -61 32 -38 29 -49 25 -31 -9 11 -21 11 -22 -4 -10 -33 27 -67 114 -67 169
0 157 114 234 232 157z"/>
<path d="M2914 3038 c-32 -8 -62 -34 -51 -44 3 -3 19 2 36 11 17 8 43 14 58
13 14 -2 28 2 30 8 5 16 -35 22 -73 12z"/>
<path d="M3013 3016 c9 -7 17 -16 17 -20 0 -3 16 -29 35 -57 36 -52 45 -53 23
-2 -14 33 -67 93 -82 93 -6 0 -3 -7 7 -14z"/>
<path d="M2816 2928 c-12 -45 -3 -138 13 -138 3 0 6 36 6 80 0 79 -7 101 -19
58z"/>
<path d="M3097 2778 c-4 -15 -21 -43 -38 -63 -17 -19 -26 -35 -21 -35 26 0 76
78 70 108 -3 12 -6 8 -11 -10z"/>
<path d="M3293 3284 c-15 -24 -15 -29 -2 -53 27 -47 79 -35 79 19 0 27 -26 60
-48 60 -6 0 -19 -12 -29 -26z m57 -9 c17 -20 8 -50 -14 -50 -23 0 -41 27 -33
49 8 20 31 21 47 1z"/>
<path d="M3316 3261 c-3 -5 1 -14 9 -21 13 -10 15 -9 15 9 0 21 -14 28 -24 12z"/>
<path d="M2632 1953 c5 -26 38 -29 38 -4 0 15 -6 21 -21 21 -14 0 -19 -5 -17
-17z"/>
<path d="M2989 1920 c-6 -47 -3 -65 14 -68 14 -3 17 4 17 37 0 30 -4 41 -15
41 -8 0 -16 -4 -16 -10z"/>
<path d="M3062 1908 c7 -19 38 -22 38 -4 0 10 -9 16 -21 16 -12 0 -19 -5 -17
-12z"/>
<path d="M3065 1870 c-8 -14 3 -30 21 -30 8 0 14 9 14 20 0 21 -24 28 -35 10z"/>
<path d="M2880 1564 c-117 -22 -250 -116 -324 -231 -69 -105 -112 -345 -87
-488 31 -178 73 -264 179 -372 116 -118 161 -138 307 -138 98 0 116 3 167 27
63 29 179 137 222 206 34 55 75 195 85 292 19 189 -47 424 -149 529 -65 68
-148 129 -203 149 -56 21 -153 34 -197 26z m61 -409 c-47 -15 -94 -52 -85 -67
4 -5 16 0 28 11 34 32 146 47 146 20 0 -6 -6 -7 -12 -3 -7 4 3 -10 22 -32 19
-21 25 -30 13 -20 -14 12 -23 14 -23 7 0 -7 -5 -9 -11 -6 -6 4 -9 1 -8 -6 4
-24 -12 -67 -27 -73 -8 -3 -14 -10 -14 -16 0 -6 24 2 54 17 30 16 52 31 49 36
-2 4 -2 7 1 7 3 0 12 -15 20 -32 l14 -33 9 25 10 25 7 -32 c11 -48 -11 -136
-44 -182 -30 -41 -77 -62 -130 -60 -23 2 -24 2 -2 6 31 6 28 20 -7 28 -16 3
-37 15 -47 26 -15 16 -15 21 -3 37 8 9 23 35 34 57 10 22 21 45 24 50 7 14
-51 -24 -66 -43 -8 -9 -13 -11 -13 -4 0 6 -7 9 -15 6 -10 -4 -14 -14 -10 -28
3 -11 -4 -4 -15 17 -17 31 -20 49 -15 93 3 32 2 54 -4 54 -5 0 -12 -26 -16
-57 -9 -79 -13 -87 -14 -28 -2 110 81 214 169 214 18 0 12 -4 -19 -14z m124
-35 c10 -11 16 -20 13 -20 -3 0 -13 9 -23 20 -10 11 -16 20 -13 20 3 0 13 -9
23 -20z"/>
<path d="M3114 922 c-6 -4 -16 -23 -23 -43 -6 -20 -23 -47 -36 -59 -14 -13
-25 -28 -25 -34 1 -14 70 64 70 78 0 6 7 23 14 39 16 30 16 30 0 19z"/>
<path d="M2570 386 c0 -2 7 -9 15 -16 13 -11 14 -10 9 4 -5 14 -24 23 -24 12z"/>
<path d="M2646 311 c-3 -5 3 -11 15 -14 16 -4 18 -3 8 9 -13 16 -16 17 -23 5z"/>
<path d="M2716 255 c-3 -9 0 -15 9 -15 16 0 20 16 6 24 -5 3 -11 -1 -15 -9z"/>
<path d="M4465 840 c-4 -14 -17 -38 -28 -54 -13 -18 -15 -27 -7 -24 18 6 53
74 47 90 -2 7 -7 2 -12 -12z"/>
<path d="M2504 436 c-4 -10 -2 -22 4 -28 8 -8 13 -7 18 6 4 10 2 22 -4 28 -8
8 -13 7 -18 -6z"/>
<path d="M3946 3155 c-21 -21 -20 -38 2 -65 16 -20 21 -21 41 -11 28 15 25 58
-5 78 -19 12 -24 12 -38 -2z m48 -28 c8 -12 7 -20 -2 -29 -16 -16 -47 13 -38
37 7 19 25 16 40 -8z"/>
<path d="M3962 3119 c2 -6 8 -10 13 -10 5 0 11 4 13 10 2 6 -4 11 -13 11 -9 0
-15 -5 -13 -11z"/>
<path d="M4162 3122 c-70 -22 -112 -66 -160 -165 -47 -97 -62 -160 -62 -267 0
-107 21 -199 72 -314 35 -80 55 -109 110 -165 92 -93 160 -126 258 -126 78 0
118 15 179 69 42 37 99 121 116 172 21 63 32 287 16 367 -23 127 -90 245 -196
352 -51 52 -69 63 -122 78 -78 21 -142 21 -211 -1z m192 -330 c2 -4 -11 -6
-30 -4 -24 3 -41 -1 -54 -13 -22 -20 -28 -44 -7 -27 6 6 30 11 52 12 57 3 67
1 61 -9 -3 -5 1 -14 9 -21 20 -17 19 -31 -2 -24 -15 5 -15 4 -3 -4 8 -6 17 -9
21 -6 4 2 15 -6 24 -18 16 -23 16 -23 9 7 l-6 30 17 -23 c22 -29 30 -87 20
-148 -8 -55 -51 -104 -91 -104 -25 0 -33 15 -11 23 6 3 -3 6 -21 6 -35 1 -84
37 -67 49 6 4 11 13 13 21 2 11 0 12 -11 3 -8 -7 -17 -9 -20 -5 -4 3 -7 -5 -7
-18 -1 -21 -3 -19 -21 14 -11 22 -18 41 -15 45 3 3 6 0 6 -6 0 -7 4 -12 10
-12 6 0 6 9 1 23 -4 12 -7 47 -5 77 2 36 0 49 -6 40 -6 -8 -11 -35 -12 -60
l-1 -45 -4 39 c-5 44 9 86 44 134 20 26 31 32 63 32 21 0 41 -4 44 -8z m-17
-348 c-3 -3 -12 -4 -19 -1 -8 3 -5 6 6 6 11 1 17 -2 13 -5z"/>
<path d="M4353 2675 c-3 -9 -3 -18 -1 -21 3 -3 8 4 11 16 6 23 -1 27 -10 5z"/>
<path d="M4313 2595 c-3 -9 -3 -18 -1 -21 3 -3 8 4 11 16 6 23 -1 27 -10 5z"/>
<path d="M4435 2543 c-3 -15 -18 -40 -33 -55 -14 -16 -21 -28 -15 -28 23 0 75
91 60 106 -2 3 -8 -8 -12 -23z"/>
<path d="M4586 3024 c-9 -8 -16 -23 -16 -32 1 -24 24 -52 44 -52 23 0 20 17
-4 23 -26 7 -29 60 -3 55 9 -2 18 -9 21 -16 2 -7 -2 -10 -12 -6 -11 4 -16 1
-16 -10 0 -19 11 -21 28 -4 18 18 15 36 -7 48 -15 7 -23 6 -35 -6z"/>
</g>
</svg>
